<svg width="258" height="29" viewBox="0 0 258 29" fill="none" xmlns="http://www.w3.org/2000/svg">
<path d="M1 24V16.2222M1 16.2222H6.86667M1 16.2222C1.83312 15.3544 2.30021 14.8678 3.13333 14H9M6.86667 16.2222V24M6.86667 16.2222L9 14M9 14V24" stroke="#007BD4"/>
<path d="M2.06667 17.3333H5.8" stroke="#007BD4" stroke-width="0.5"/>
<path d="M2.06667 19.2778H5.8" stroke="#007BD4" stroke-width="0.5"/>
<path d="M2.06667 21.2222H5.8" stroke="#007BD4" stroke-width="0.5"/>
<path d="M2.06667 23.1667H5.8" stroke="#007BD4" stroke-width="0.5"/>
<path d="M9 24V10.7778M9 10.7778H20M9 10.7778C10.5621 9.30246 11.4379 8.47531 13 7H24M20 10.7778V24M20 10.7778L24 7M24 7V24" stroke="#007BD4"/>
<path d="M11 12.6667H18" stroke="#007BD4"/>
<path d="M11 15.9722H18" stroke="#007BD4"/>
<path d="M11 19.2778H18" stroke="#007BD4"/>
<path d="M11 22.5833H18" stroke="#007BD4"/>
<path d="M29.45 19.625V17.225H31.65V19.625H29.45ZM34.925 12.85H29.45V10.875H36.125L37 8.675V6.5H24V24H34.925C36.2 24 37.1 23.075 37.1 21.8V15.025C37.1 13.75 36.2 12.85 34.925 12.85ZM46.7438 24L51.4688 8.675V6.5H46.3938L45.3438 13.35H44.7438L43.3438 6.5H38.0938V8.675L42.6188 19.85L41.9188 21.825V24H46.7438ZM58.335 24H62.91L64.26 15.6H64.71V24H70.035V21.825L68.26 6.5H62.135L60.81 13.4H60.435L59.11 6.5H53.01L51.21 21.825V24H56.56V15.6H56.985L58.335 24Z" fill="#007BD5"/>
<path d="M76.9842 12.85V6.5H71.5342V24H76.9842V17.225H79.1842V24H84.6342V6.5H79.1842V12.85H76.9842ZM98.3221 24V19.625H92.0721V17.225H97.4471V12.85H92.0721V10.9H97.4471L98.3221 8.675V6.5H86.6221V24H98.3221ZM108.405 19.625H106.28L107.63 10.875H108.405V19.625ZM99.0801 24H115.33V19.625H113.88V6.5H103.38L100.705 19.625H99.0801V24ZM122.053 17.225H124.228V19.625H122.053V17.225ZM124.228 12.85H122.053V10.9H124.228V12.85ZM127.503 24C128.803 24 129.703 23.1 129.703 21.825V17.4C129.703 16.1 128.653 15.275 127.453 15.275V14.8C128.653 14.8 129.703 13.975 129.703 12.7V8.675C129.703 7.4 128.803 6.5 127.503 6.5H116.578V24H127.503ZM139.096 8.25L136.521 14.275H136.096L136.896 8.675V6.5H131.446V24H136.896V22.25L139.471 16.225H139.921L139.096 21.825V24H144.546V6.5H139.096V8.25ZM159.959 12.85H159.209V6.5H153.734V12.85H152.984L151.659 6.5H146.484V8.675L148.484 14.725L146.034 21.825V24H151.509L152.984 17.225H153.734V24H159.209V17.225H159.959L161.434 24H166.909V21.825L164.459 14.725L166.484 8.675V6.5H161.284L159.959 12.85ZM176.059 8.25L173.484 14.275H173.059L173.859 8.675V6.5H168.409V24H173.859V22.25L176.434 16.225H176.884L176.059 21.825V24H181.509V6.5H176.059V8.25ZM190.122 24H194.697L196.047 15.6H196.497V24H201.822V21.825L200.047 6.5H193.922L192.597 13.4H192.222L190.897 6.5H184.797L182.997 21.825V24H188.347V15.6H188.772L190.122 24ZM210.971 10.9V19.625H208.796V10.9H210.971ZM214.246 24C215.546 24 216.446 23.1 216.446 21.825V8.675C216.446 7.4 215.546 6.5 214.246 6.5H205.521C204.221 6.5 203.321 7.4 203.321 8.675V21.825C203.321 23.1 204.221 24 205.521 24H214.246ZM220.658 6.5C219.358 6.5 218.458 7.4 218.458 8.675V21.825C218.458 23.1 219.358 24 220.658 24H230.158V19.625H223.933V10.9H229.308L230.158 8.675V6.5H220.658ZM234.191 10.9V24H239.666V10.9H242.291L243.166 8.675V6.5H230.916V10.9H234.191ZM249.885 19.625V16.35H252.06V19.625H249.885ZM255.36 11.975H249.885V6.5H244.41V24H255.36C256.635 24 257.535 23.075 257.535 21.8V14.15C257.535 12.875 256.635 11.975 255.36 11.975Z" fill="#45B1FF"/>
</svg>
