<svg width="15" height="11" viewBox="0 0 15 11" fill="none" xmlns="http://www.w3.org/2000/svg">
<g clip-path="url(#clip0_11_142)">
<path d="M0.0356445 0.749998C0.0356445 0.37523 0.339455 0.0714264 0.714216 0.0714264H14.2856C14.6604 0.0714264 14.9642 0.37523 14.9642 0.749998C14.9642 1.12477 14.6604 1.42857 14.2856 1.42857H0.714216C0.339455 1.42857 0.0356445 1.12477 0.0356445 0.749998Z" fill="black"/>
<path d="M0.0356445 5.5C0.0356445 5.12522 0.339455 4.82143 0.714216 4.82143H14.2856C14.6604 4.82143 14.9642 5.12522 14.9642 5.5C14.9642 5.87477 14.6604 6.17857 14.2856 6.17857H0.714216C0.339455 6.17857 0.0356445 5.87477 0.0356445 5.5Z" fill="black"/>
<path d="M0.714216 9.57143C0.339455 9.57143 0.0356445 9.87522 0.0356445 10.25C0.0356445 10.6248 0.339455 10.9286 0.714216 10.9286H14.2856C14.6604 10.9286 14.9642 10.6248 14.9642 10.25C14.9642 9.87522 14.6604 9.57143 14.2856 9.57143H0.714216Z" fill="black"/>
</g>
<defs>
<clipPath id="clip0_11_142">
<rect width="15" height="11" fill="white"/>
</clipPath>
</defs>
</svg>
